:SAMPLES-PER-SECOND 30
:FRAME-RANGE 1-3358
:FULLY-SPECIFIED
:DEGREES
210
root  75.7619 38.4226 -24.6098 176.965 -40.6945 -173.963
RightUpLeg  -13.4876 -3.80291 -8.29255
RightLeg  8.55509 4.90196 -1.06776
RightFoot  2.00443 -2.15112 18.3597
RightToes  -5.8209e-011 0 -3.6325e-017
Spine  5.86097 1.23354 5.07054
Spine1  0.0546789 2.73331 -6.70207
HEad  -9.43522 36.4045 -13.78
LeftShoulder1  1.39446 0.0618535 -34.4397
LeftArm  29.8743 -8.63016 -40.4738
LeftForeArm  -1.28048 -25.253 -5.47478
LeftHand  0.38091 -3.25291 -4.88483
RightShoulder  4.85334 5.89101 45.207
RightArm  0.73979 -6.56835 9.27066
RightForeArm  16.9997 -6.82579 16.4901
RightHand  0.454773 7.44517 3.73503
LeftUpLeg  6.99605 -9.83756 -1.82609
LeftLeg  18.7389 -4.11574 -0.846697
LeftFoot  -24.0525 0.850097 6.32484
LeftToes  -4.03819e-010 -8.71445e-011 8.52097e-011
211
root  75.6757 38.0707 -25.6266 175.392 -43.1565 -172.58
RightUpLeg  -14.9443 -2.7909 -8.01055
RightLeg  16.8894 2.36797 0.488383
RightFoot  -2.74581 -1.39207 18.1316
RightToes  -5.8209e-011 0 -3.6325e-017
Spine  7.49861 0.876799 8.43583
Spine1  -0.630104 2.88526 -7.8193
HEad  -9.39107 35.9878 -15.3088
LeftShoulder1  1.32913 0.258048 -34.8651
LeftArm  25.7675 -7.75854 -38.1469
LeftForeArm  0.488137 -26.5891 -5.68958
LeftHand  0.337684 -3.09559 -4.39654
RightShoulder  5.12713 6.5107 44.7811
RightArm  0.39148 -5.11857 9.31014
RightForeArm  16.4135 -6.46007 16.5425
RightHand  0.427612 7.41491 3.50014
LeftUpLeg  5.24055 -11.6357 -0.163162
LeftLeg  26.1393 -2.22331 -0.846245
LeftFoot  -25.8753 0.496941 2.67581
LeftToes  -4.03819e-010 -8.71445e-011 8.52097e-011
212
root  75.5521 37.8703 -26.5455 173.326 -46.9083 -170.484
RightUpLeg  -14.3283 -5.05327 -6.53293
RightLeg  21.3207 1.46461 0.41306
RightFoot  -6.40645 -0.827313 18.0405
RightToes  -5.8209e-011 0 -3.6325e-017
Spine  7.81152 0.403563 10.2961
Spine1  0.484588 2.52711 -6.30124
HEad  -9.61023 35.3005 -16.6535
LeftShoulder1  1.3818 0.149012 -35.101
LeftArm  24.9486 -7.71991 -37.5322
LeftForeArm  -1.81497 -25.0382 -5.45342
LeftHand  0.239787 -2.61704 -3.27864
RightShoulder  5.67532 7.71833 44.2019
RightArm  -1.44393 -3.25837 9.10597
RightForeArm  17.0671 -6.22145 16.3096
RightHand  0.42221 7.36329 3.46793
LeftUpLeg  1.04477 -8.94213 3.31347
LeftLeg  36.1136 -1.97384 -1.18083
LeftFoot  -24.3984 -0.34975 -4.3345
LeftToes  -4.03819e-010 -8.71445e-011 8.52097e-011
213
root  75.4008 37.8494 -27.3858 172.343 -51.5406 -169.529
RightUpLeg  -12.9263 -8.1951 -6.11662
RightLeg  23.4377 0.331098 -0.0688248
RightFoot  -8.98919 -0.42727 17.6843
RightToes  -5.8209e-011 0 -3.6325e-017
Spine  7.80015 0.126814 10.2951
Spine1  0.992425 2.07249 -4.3129
HEad  -8.30387 33.5878 -15.85
LeftShoulder1  1.44916 -0.069217 -34.4857
LeftArm  26.1348 -7.97947 -38.2838
LeftForeArm  -5.94271 -21.4562 -6.3059
LeftHand  0.138572 -1.89278 -2.05311
RightShoulder  6.24286 8.84989 44.1597
RightArm  -4.19848 -1.86276 8.55258
RightForeArm  19.2633 -5.8853 15.7514
RightHand  0.339937 7.17077 2.77335
LeftUpLeg  -4.50454 -6.16898 5.26219
LeftLeg  45.2666 -0.1228 0.277076
LeftFoot  -17.2548 -0.361211 -8.97766
LeftToes  -4.03819e-010 -8.71445e-011 8.52097e-011
214
root  75.1864 37.8962 -28.0858 171.881 -55.4694 -168.682
RightUpLeg  -11.6603 -11.4665 -5.92763
RightLeg  24.1754 0.0907418 -0.187176
RightFoot  -10.6068 -0.185719 17.5262
RightToes  -5.8209e-011 0 -3.6325e-017
Spine  8.09718 0.138013 11.2558
Spine1  0.258298 2.18314 -3.89716
HEad  -5.71152 31.5553 -13.8676
LeftShoulder1  1.44535 -0.111422 -33.9154
LeftArm  22.6741 -8.11685 -38.2455
LeftForeArm  -4.0809 -17.6098 -9.77892
LeftHand  0.153882 -1.60818 -2.41853
RightShoulder  6.47012 9.38349 43.8541
RightArm  -5.03865 -0.918953 8.99841
RightForeArm  19.6426 -4.20833 15.5111
RightHand  0.215345 6.83336 1.68793
LeftUpLeg  -10.3037 -1.76588 6.12811
LeftLeg  51.7419 2.08338 3.29283
LeftFoot  -10.7541 0.0854239 -4.09138
LeftToes  -4.03819e-010 -8.71445e-011 8.52097e-011
215
root  74.8782 38.2226 -28.7696 172.907 -59.0656 -169.248
RightUpLeg  -9.39921 -14.6158 -6.59465
RightLeg  22.101 -0.391664 -0.157719
RightFoot  -10.5336 -0.195631 17.4075
RightToes  -5.8209e-011 0 -3.6325e-017
Spine  8.16664 0.492071 11.089
Spine1  -0.728603 2.43327 -4.16036
HEad  -3.96792 29.2448 -12.666
LeftShoulder1  1.46561 -0.15231 -34.0218
LeftArm  20.3073 -7.81754 -37.0739
LeftForeArm  -1.8646 -14.7297 -12.2495
LeftHand  0.238284 -1.68301 -3.77607
RightShoulder  6.54725 9.64367 43.4774
RightArm  -4.0266 -0.229585 10.0285
RightForeArm  17.7701 -1.05969 15.477
RightHand  0.181553 6.92374 1.35312
LeftUpLeg  -15.2979 3.97255 5.23168
LeftLeg  54.103 2.95632 4.86683
LeftFoot  -10.4576 0.093136 -3.94779
LeftToes  -4.03819e-010 -8.71445e-011 8.52097e-011
216
root  74.5084 38.5959 -29.3641 174.721 -62.2091 -170.652
RightUpLeg  -6.89907 -15.813 -7.88922
RightLeg  19.3424 -2.10935 0.170419
RightFoot  -9.75242 -0.312273 17.5785
RightToes  -5.8209e-011 0 -3.6325e-017
Spine  8.18043 0.923847 10.7899
Spine1  -1.30727 2.80115 -4.90744
HEad  -3.97129 27.0518 -12.6305
LeftShoulder1  1.48316 -0.200408 -33.9763
LeftArm  18.7441 -7.08331 -35.8468
LeftForeArm  0.496201 -12.4477 -13.8884
LeftHand  0.300209 -1.94204 -4.60142
RightShoulder  6.84553 10.2694 43.3837
RightArm  -1.66568 0.763702 11.0884
RightForeArm  15.1572 2.38825 15.2866
RightHand  0.254414 7.30111 1.95844
LeftUpLeg  -19.3927 9.96217 2.98641
LeftLeg  52.5213 2.0623 3.35437
LeftFoot  -10.3655 0.107529 -5.33301
LeftToes  -4.03819e-010 -8.71445e-011 8.52097e-011
217
root  74.0577 38.9427 -29.9229 176.027 -65.9687 -171.656
RightUpLeg  -3.55761 -15.2383 -9.1951
RightLeg  15.9011 -6.02606 0.787904
RightFoot  -8.72727 -0.473736 18.0058
RightToes  -5.8209e-011 0 -3.6325e-017
Spine  7.73774 1.11941 10.1119
Spine1  -1.06209 2.80443 -5.02327
HEad  -4.45414 24.8991 -13.0171
LeftShoulder1  1.52106 -0.31756 -33.7451
LeftArm  16.9261 -6.27376 -34.8504
LeftForeArm  2.35872 -10.2565 -15.1998
LeftHand  0.314966 -1.72934 -5.00068
RightShoulder  7.32922 11.1969 43.5194
RightArm  2.43724 1.79577 12.0311
RightForeArm  11.4829 6.38279 14.6381
RightHand  0.337997 7.59009 2.64562
LeftUpLeg  -22.839 14.3516 0.172958
LeftLeg  48.4831 1.73366 2.52958
LeftFoot  -10.4228 0.103373 -5.10415
LeftToes  -4.03819e-010 -8.71445e-011 8.52097e-011
